<?xml version="1.0" standalone="no"?>
<!DOCTYPE svg PUBLIC "-//W3C//DTD SVG 20010904//EN"
 "http://www.w3.org/TR/2001/REC-SVG-20010904/DTD/svg10.dtd">
<svg version="1.0" xmlns="http://www.w3.org/2000/svg"
 width="1280.000000pt" height="1280.000000pt" viewBox="0 0 1280.000000 1280.000000"
 preserveAspectRatio="xMidYMid meet">
<metadata>
Created by potrace 1.11, written by Peter Selinger 2001-2013
</metadata>
<g transform="translate(0.000000,1280.000000) scale(0.100000,-0.100000)"
fill="#000000" stroke="none">
<path d="M8520 11925 c0 -5 -17 -11 -38 -13 -61 -4 -87 -8 -99 -15 -7 -4 -24
-5 -38 -3 -15 3 -39 0 -53 -6 -15 -6 -37 -11 -49 -11 -13 0 -23 -4 -23 -8 0
-5 -3 -8 -7 -7 -15 5 -141 -62 -147 -77 -3 -9 -10 -13 -16 -10 -5 3 -10 -1
-10 -9 0 -9 -4 -16 -10 -16 -11 0 -85 -71 -85 -82 0 -4 -8 -17 -17 -28 -10
-11 -18 -27 -18 -36 0 -9 -5 -12 -12 -8 -7 4 -8 3 -4 -4 12 -19 16 -53 5 -47
-5 4 -9 -1 -9 -9 0 -8 -5 -18 -12 -22 -7 -5 -8 -3 -3 7 7 11 6 12 -7 2 -8 -7
-17 -10 -20 -8 -12 12 -48 13 -48 2 0 -8 -3 -8 -8 -2 -9 13 -27 14 -199 17
-79 2 -143 7 -143 11 0 5 -6 5 -12 0 -7 -4 -21 -6 -32 -4 -11 1 -16 -2 -12 -8
5 -8 0 -8 -16 -2 -13 5 -45 6 -73 4 -27 -2 -57 -5 -65 -5 -8 0 -20 -5 -27 -10
-7 -5 -14 -5 -17 1 -3 5 -23 7 -43 4 -21 -2 -58 -6 -82 -9 -24 -2 -51 -10 -59
-16 -13 -11 -14 -10 -7 2 8 13 6 13 -8 2 -9 -8 -21 -11 -27 -7 -5 3 -10 2 -10
-3 0 -5 -11 -7 -25 -4 -14 2 -25 8 -25 13 0 5 -7 9 -15 9 -9 0 -18 7 -21 15
-4 9 -11 14 -18 13 -6 -1 -21 3 -33 10 -13 7 -23 10 -23 7 0 -4 -7 1 -16 9 -8
9 -19 14 -24 11 -5 -3 -10 0 -12 6 -2 7 -13 13 -24 14 -10 1 -34 9 -52 19 -19
10 -40 15 -48 12 -8 -3 -14 -1 -14 5 0 6 -7 8 -16 5 -8 -3 -13 -2 -10 2 2 4
-9 15 -25 25 -17 9 -27 11 -22 4 4 -7 -3 -5 -17 4 -14 9 -38 19 -55 23 -16 4
-33 13 -37 19 -6 9 -8 9 -8 -1 0 -10 -7 -9 -30 3 -16 8 -36 15 -45 15 -9 0
-14 4 -11 8 2 4 -11 7 -30 7 -19 -1 -37 2 -40 6 -2 4 -13 6 -24 4 -11 -2 -20
1 -20 7 0 5 -7 8 -15 4 -8 -3 -15 -1 -15 5 0 6 -4 7 -10 4 -5 -3 -19 -1 -31 6
-16 8 -20 8 -14 -1 6 -9 3 -9 -12 -1 -11 6 -23 7 -27 4 -3 -3 -6 -2 -6 4 0 6
-12 9 -27 7 -15 -1 -32 1 -38 5 -5 5 -17 9 -25 9 -8 1 -26 3 -40 6 -63 11
-130 19 -190 20 -36 1 -71 6 -79 10 -10 7 -12 6 -6 -4 6 -10 4 -12 -8 -7 -9 3
-18 1 -21 -6 -3 -9 -5 -8 -5 1 -1 8 -6 10 -13 6 -19 -12 -48 -12 -48 0 0 6 -4
5 -9 -2 -4 -7 -12 -12 -17 -10 -5 1 -19 -3 -31 -10 -13 -7 -23 -9 -23 -5 0 4
-4 2 -9 -5 -4 -7 -14 -15 -22 -17 -37 -8 -59 -18 -59 -26 0 -5 -7 -5 -17 -2
-10 4 -14 2 -10 -4 5 -7 0 -9 -13 -6 -14 4 -20 0 -20 -12 0 -15 -2 -16 -17 -4
-11 10 -14 10 -9 2 4 -8 2 -13 -8 -13 -8 0 -18 -9 -21 -20 -4 -11 -11 -18 -16
-15 -5 4 -9 -1 -9 -9 0 -9 -3 -15 -7 -14 -11 4 -93 -77 -93 -91 0 -7 -4 -9
-10 -6 -5 3 -10 1 -10 -4 0 -6 -8 -19 -17 -29 -32 -34 -53 -62 -53 -71 0 -5
-7 -11 -15 -15 -8 -3 -15 -11 -15 -18 -1 -21 -36 -89 -42 -82 -4 3 -5 -6 -4
-20 2 -18 -3 -32 -16 -40 -14 -10 -16 -16 -7 -21 9 -6 9 -11 -2 -19 -8 -6 -21
-31 -28 -56 -7 -25 -17 -50 -23 -57 -5 -7 -7 -17 -4 -22 4 -5 1 -13 -5 -17 -8
-5 -9 -3 -4 7 5 8 4 11 0 6 -5 -4 -10 -18 -12 -30 -6 -37 -37 -137 -43 -137
-4 0 -5 -13 -4 -30 1 -16 -2 -30 -6 -30 -5 0 -7 -9 -5 -19 2 -11 -3 -25 -10
-31 -7 -6 -12 -20 -10 -31 2 -10 -1 -19 -6 -19 -6 0 -8 -4 -4 -9 3 -5 1 -12
-5 -16 -6 -4 -8 -10 -5 -15 3 -5 1 -11 -4 -15 -5 -3 -8 -14 -6 -25 2 -11 -1
-22 -6 -25 -5 -4 -7 -10 -4 -15 3 -4 -11 -15 -30 -24 -19 -9 -35 -22 -35 -28
0 -6 -3 -8 -6 -5 -4 4 -20 -3 -35 -14 -16 -11 -29 -18 -29 -14 0 6 -16 -6 -54
-42 -13 -12 -26 -20 -29 -17 -2 3 -18 -13 -34 -35 -17 -23 -33 -38 -36 -34 -4
3 -7 2 -7 -4 0 -5 -29 -40 -65 -78 -36 -38 -65 -75 -65 -83 0 -7 -4 -11 -9 -8
-5 3 -16 -10 -25 -29 -9 -19 -21 -37 -26 -40 -5 -3 -17 -21 -26 -40 -9 -19
-23 -35 -31 -35 -8 0 -11 -4 -8 -10 3 -5 2 -10 -3 -10 -5 0 -12 -9 -15 -21 -3
-12 -10 -18 -16 -14 -6 3 -9 0 -6 -7 5 -13 -9 -36 -45 -78 -8 -9 -16 -23 -18
-31 -2 -7 -9 -17 -15 -21 -7 -4 -7 -8 -2 -8 6 0 1 -7 -9 -15 -11 -8 -16 -15
-12 -15 4 0 -2 -13 -13 -29 -11 -15 -18 -31 -14 -35 3 -3 1 -6 -5 -6 -6 0 -9
-7 -6 -15 4 -8 1 -15 -5 -15 -6 0 -11 -7 -11 -15 0 -8 -5 -15 -11 -15 -5 0 -8
-4 -5 -9 4 -5 2 -11 -3 -13 -5 -1 -11 -10 -13 -18 -2 -8 -9 -21 -15 -28 -7 -7
-13 -22 -13 -33 0 -10 -3 -19 -8 -19 -4 0 -13 -9 -20 -21 -11 -17 -11 -20 0
-14 7 3 4 -2 -8 -12 -11 -10 -19 -24 -16 -31 2 -6 -1 -12 -7 -12 -6 0 -11 -3
-10 -7 3 -21 -15 -52 -32 -56 -10 -3 -19 -2 -19 1 0 4 -13 8 -28 9 -40 3 -56
7 -62 15 -3 4 -21 8 -40 9 -19 2 -39 5 -45 8 -10 6 -13 6 -55 12 -14 2 -27 7
-30 10 -3 4 -21 9 -40 10 -19 2 -41 10 -49 17 -9 9 -17 10 -26 2 -9 -8 -15 -8
-20 0 -3 6 -11 8 -16 5 -5 -4 -9 -2 -9 2 0 5 -16 10 -36 11 -20 2 -44 7 -53
11 -9 5 -32 11 -51 14 -19 3 -51 11 -70 17 -36 12 -74 20 -100 22 -8 0 -21 6
-29 12 -12 9 -13 8 -6 -4 7 -13 6 -13 -7 -2 -9 7 -30 14 -47 15 -17 1 -31 6
-31 11 0 4 -11 6 -25 4 -14 -3 -25 -1 -25 4 0 5 -4 6 -10 3 -5 -3 -10 -2 -10
2 0 5 -11 10 -25 11 -47 3 -55 5 -55 14 0 4 -16 8 -35 8 -21 0 -35 5 -35 13 0
8 -4 7 -10 -3 -6 -10 -10 -11 -10 -2 0 7 -13 12 -31 12 -16 0 -28 4 -25 8 4 7
-28 13 -86 15 -10 1 -18 6 -18 11 0 5 -3 6 -6 3 -4 -3 -15 -2 -25 3 -12 7 -19
6 -21 -2 -3 -9 -9 -8 -21 4 -9 9 -30 15 -47 14 -16 -1 -30 1 -30 5 0 4 -7 10
-16 13 -10 4 -13 2 -8 -7 6 -9 5 -9 -7 0 -9 7 -31 15 -50 17 -19 3 -36 5 -39
7 -3 1 -8 1 -12 0 -5 0 -8 3 -8 9 0 5 -7 7 -15 4 -9 -4 -15 0 -15 7 0 11 -3
11 -10 -1 -7 -12 -10 -12 -10 -1 0 7 -6 11 -15 7 -8 -3 -15 0 -15 7 0 8 -4 6
-10 -3 -7 -12 -10 -12 -10 -1 0 7 -6 11 -15 8 -8 -4 -17 -2 -20 3 -11 17 -20
11 -32 -20 -6 -16 -7 -30 -2 -30 5 0 9 -5 9 -10 0 -7 -8 -7 -22 1 -22 11 -22
11 2 -17 14 -16 18 -23 8 -16 -11 9 -18 10 -23 2 -3 -5 0 -10 7 -10 9 0 9 -3
-2 -10 -8 -5 -15 -13 -16 -17 -6 -50 -18 -92 -25 -87 -5 3 -9 1 -9 -5 0 -5 5
-11 11 -13 8 -3 5 -11 -7 -22 -10 -10 -18 -31 -19 -46 -1 -16 -8 -37 -16 -46
-9 -11 -9 -15 -1 -10 14 8 16 -5 3 -20 -5 -5 -12 -22 -14 -39 -3 -16 -9 -39
-13 -49 -5 -14 -4 -17 4 -12 7 4 12 2 12 -3 0 -6 -7 -11 -16 -11 -8 0 -13 -4
-9 -9 3 -5 1 -13 -5 -16 -8 -5 -7 -12 2 -23 7 -9 8 -13 3 -10 -6 4 -18 -7 -28
-24 -13 -23 -14 -28 -3 -19 11 9 10 1 -5 -38 -10 -28 -15 -51 -10 -51 15 0 6
-32 -12 -45 -9 -7 -17 -18 -17 -26 0 -11 2 -11 10 1 5 8 10 10 10 4 0 -6 -7
-17 -15 -24 -11 -9 -12 -16 -4 -26 8 -10 5 -16 -10 -26 -12 -7 -21 -16 -21
-21 0 -4 4 -6 9 -2 5 3 13 0 17 -6 4 -7 3 -9 -3 -6 -14 9 -37 -19 -28 -33 3
-5 2 -10 -4 -10 -6 0 -7 -7 -4 -17 5 -12 3 -14 -8 -8 -12 8 -12 6 0 -8 12 -15
12 -17 -4 -11 -15 6 -16 4 -7 -12 8 -15 7 -23 -6 -38 -9 -11 -12 -17 -7 -14 6
3 10 -5 10 -18 0 -14 -6 -24 -15 -25 -11 0 -12 -2 -2 -6 10 -4 9 -8 -4 -17
-13 -10 -14 -15 -4 -21 9 -6 11 -4 5 5 -5 9 -4 11 4 6 14 -9 3 -29 -13 -23 -7
3 -11 -11 -10 -44 1 -27 -3 -49 -9 -49 -5 0 -3 -7 4 -17 13 -15 12 -15 -7 -5
-16 9 -21 8 -21 -3 0 -8 4 -12 9 -9 4 3 8 -2 8 -11 0 -9 -4 -13 -10 -10 -5 3
-10 -1 -10 -9 0 -9 -5 -16 -12 -16 -6 0 -8 -3 -5 -6 4 -4 13 -1 22 6 9 8 15 8
15 2 0 -6 -9 -14 -20 -17 -21 -7 -18 -26 3 -21 7 1 9 1 4 -2 -4 -2 -12 -13
-18 -24 -10 -18 -9 -20 7 -14 17 5 17 5 -1 -10 -11 -8 -18 -21 -17 -27 2 -7 0
-8 -4 -4 -13 13 -13 38 -1 30 7 -3 9 -3 5 2 -4 4 -3 16 3 26 7 15 6 17 -5 13
-9 -3 -14 -11 -13 -17 1 -7 -4 -11 -11 -9 -9 2 -11 -2 -6 -10 13 -20 15 -48 4
-48 -6 0 -10 -9 -10 -19 0 -11 -6 -21 -12 -24 -10 -3 -9 -8 2 -22 9 -11 10
-16 3 -11 -7 4 -14 2 -14 -3 -2 -14 -6 -30 -9 -33 -1 -2 -3 -11 -5 -21 -2 -13
1 -17 11 -13 9 3 12 1 9 -4 -3 -6 -13 -10 -22 -10 -10 0 -13 -6 -9 -16 3 -8 2
-12 -4 -9 -6 4 -8 -6 -6 -24 2 -17 0 -28 -4 -26 -15 9 -19 -24 -4 -35 16 -15
19 -30 3 -30 -5 0 -7 5 -4 10 3 6 1 10 -5 10 -7 0 -10 -7 -7 -15 4 -8 2 -17
-3 -20 -6 -4 -10 -11 -10 -18 0 -6 6 -3 13 6 11 16 12 15 12 -7 0 -13 -5 -22
-11 -19 -7 2 -15 -1 -20 -8 -4 -8 -3 -10 4 -5 14 8 11 -29 -3 -41 -4 -5 -5 -3
-1 4 3 6 1 15 -6 19 -7 4 -10 4 -6 -1 4 -4 -2 -25 -13 -46 -11 -23 -15 -39 -8
-39 6 0 3 -7 -5 -16 -18 -18 -22 -39 -5 -28 6 3 4 -4 -4 -17 -9 -13 -18 -35
-20 -49 -3 -14 -11 -41 -19 -60 -8 -19 -13 -41 -11 -47 3 -7 0 -13 -6 -13 -6
0 -8 -6 -5 -14 3 -8 1 -17 -5 -21 -6 -3 -11 -11 -11 -16 0 -6 6 -7 12 -3 9 6
9 3 0 -9 -8 -9 -10 -22 -6 -28 4 -7 3 -9 -3 -6 -6 4 -14 0 -17 -9 -4 -10 -2
-13 7 -9 6 4 4 0 -5 -8 -14 -11 -15 -16 -5 -27 9 -10 9 -11 0 -6 -12 7 -18 -5
-14 -27 1 -4 -5 -14 -13 -22 -7 -8 -12 -25 -11 -39 2 -14 0 -26 -4 -26 -4 0
-8 -7 -8 -15 0 -9 6 -14 14 -11 8 3 11 1 8 -4 -3 -6 -13 -10 -21 -10 -14 0
-13 -2 0 -16 19 -19 21 -31 3 -16 -10 8 -13 6 -14 -11 -1 -12 -7 -23 -13 -25
-5 -2 -10 -8 -10 -13 0 -6 4 -8 8 -5 5 3 9 -1 9 -9 0 -8 -3 -13 -5 -10 -3 3
-11 -7 -19 -22 -10 -19 -10 -28 -2 -33 7 -5 5 -9 -5 -13 -22 -9 -20 -28 2 -20
11 3 9 0 -6 -11 -12 -10 -19 -22 -16 -28 4 -6 10 -5 16 3 8 11 9 11 5 -1 -2
-8 -9 -14 -15 -13 -16 4 -40 -82 -29 -103 7 -12 6 -15 -2 -10 -6 4 -15 -3 -21
-19 -13 -35 -13 -48 3 -39 6 4 5 -1 -4 -12 -24 -28 -34 -48 -21 -40 6 3 14 1
18 -5 4 -7 3 -9 -3 -6 -15 9 -39 -24 -37 -50 0 -13 -3 -23 -7 -23 -5 0 -8 -3
-7 -7 3 -12 -25 -113 -32 -113 -3 0 -7 -8 -8 -17 -6 -62 -23 -123 -33 -123 -6
0 -7 -5 -4 -10 4 -6 0 -23 -8 -39 -11 -22 -12 -32 -3 -42 8 -9 8 -10 0 -6 -13
8 -28 -49 -17 -66 3 -6 1 -7 -5 -3 -12 7 -13 4 -16 -51 0 -12 -5 -25 -10 -30
-5 -5 -6 -2 -1 6 5 9 4 12 -3 7 -6 -4 -9 -13 -5 -21 3 -8 0 -15 -7 -15 -6 0
-9 -4 -6 -9 3 -5 -1 -28 -9 -51 -8 -24 -13 -45 -10 -48 3 -3 1 -10 -4 -16 -13
-17 -22 -48 -12 -41 5 3 8 -2 7 -11 -1 -9 -10 -21 -20 -26 -14 -8 -15 -12 -4
-26 10 -12 10 -14 1 -8 -7 4 -13 4 -14 -1 0 -4 -3 -17 -6 -28 -3 -11 -5 -32
-6 -47 -1 -15 -4 -25 -8 -22 -6 3 -29 -69 -28 -90 1 -5 -5 -13 -13 -17 -10 -7
-10 -9 0 -9 6 0 12 -5 12 -11 0 -5 -5 -7 -12 -3 -8 5 -9 0 -6 -14 4 -12 2 -22
-4 -22 -5 0 -6 -4 -3 -10 3 -5 2 -10 -3 -10 -5 0 -8 -14 -7 -30 2 -23 0 -28
-10 -20 -9 8 -12 4 -10 -15 2 -14 0 -25 -5 -25 -4 0 -6 -9 -3 -20 3 -12 0 -20
-8 -20 -7 0 -9 -3 -6 -6 3 -4 2 -16 -4 -27 -9 -15 -8 -18 3 -11 11 6 11 5 0
-8 -14 -17 -24 -50 -26 -85 0 -12 -3 -19 -6 -17 -2 3 -10 -16 -18 -43 -7 -26
-15 -57 -18 -68 -3 -11 -7 -27 -9 -35 -3 -20 -14 -51 -26 -73 -5 -10 -7 -22
-4 -27 3 -5 1 -11 -4 -14 -5 -4 -8 -17 -7 -31 2 -13 -1 -22 -5 -19 -5 3 -9 -3
-9 -14 0 -10 -3 -22 -7 -26 -4 -3 -8 -13 -10 -21 -2 -8 -5 -21 -6 -28 -2 -6
-7 -29 -12 -49 -4 -21 -12 -38 -19 -38 -6 0 -4 -5 4 -10 12 -7 12 -10 1 -10
-7 0 -11 -6 -7 -15 3 -8 1 -15 -5 -15 -6 0 -9 -7 -5 -15 3 -8 -2 -19 -12 -24
-14 -8 -14 -10 -2 -11 11 0 12 -3 3 -8 -6 -4 -13 -19 -15 -34 -2 -15 -7 -30
-11 -34 -4 -4 0 -15 9 -25 12 -13 12 -19 3 -25 -7 -4 -10 -3 -5 4 3 6 2 13 -3
16 -13 9 -22 -9 -23 -44 -1 -17 -5 -30 -11 -30 -5 0 -7 -7 -3 -15 3 -8 1 -15
-4 -15 -5 0 -7 -6 -4 -14 3 -8 1 -17 -5 -21 -6 -3 -11 -16 -11 -29 0 -12 -5
-27 -11 -33 -6 -6 -12 -17 -13 -24 -1 -8 -9 -34 -16 -59 -17 -58 -17 -57 -19
-76 0 -8 -5 -12 -11 -9 -6 4 -7 -1 -3 -10 3 -10 0 -21 -8 -26 -12 -7 -12 -9 0
-9 10 0 11 -3 2 -13 -6 -8 -8 -17 -4 -20 3 -4 0 -14 -8 -24 -9 -11 -10 -14 -2
-9 7 4 13 3 13 -1 0 -8 23 -13 68 -16 6 0 12 -3 12 -7 0 -4 6 -7 13 -8 6 0 23
-3 37 -7 53 -13 76 -18 95 -19 11 0 22 -4 25 -8 3 -4 19 -9 35 -12 17 -3 41
-9 55 -12 14 -3 33 -6 43 -6 9 1 17 -2 17 -6 0 -4 12 -9 27 -10 15 -1 29 -5
32 -10 3 -4 19 -8 36 -9 16 -2 31 -7 33 -13 2 -6 8 -8 12 -5 5 3 27 -1 49 -9
27 -9 38 -10 34 -2 -4 6 1 5 10 -3 9 -7 17 -11 17 -7 0 3 12 1 28 -5 31 -12
77 -22 109 -23 11 -1 19 -4 16 -8 -2 -5 7 -8 21 -8 14 0 26 -6 26 -12 0 -9 4
-8 10 2 5 8 10 10 10 5 0 -6 12 -12 26 -13 14 -1 31 -5 37 -9 7 -4 20 -8 30
-9 36 -3 38 -4 31 -16 -5 -9 -2 -9 9 1 13 10 17 10 17 1 0 -7 7 -10 15 -7 8 4
17 2 21 -4 3 -6 12 -8 19 -5 7 2 18 -1 24 -7 6 -6 11 -7 11 -3 0 5 8 2 17 -5
15 -12 16 -12 8 1 -8 13 -5 13 15 -1 14 -9 35 -15 47 -14 13 1 23 -2 23 -6 0
-4 9 -6 20 -4 11 2 20 -1 20 -7 0 -6 9 -8 20 -5 11 3 20 2 20 -2 0 -4 12 -7
28 -6 15 0 29 -2 32 -6 3 -4 16 -9 30 -10 14 -2 27 -7 30 -11 3 -4 24 -9 46
-12 22 -2 50 -9 62 -15 27 -14 35 -14 26 1 -4 6 3 4 17 -5 13 -9 36 -17 51
-17 15 0 30 -5 34 -11 3 -6 15 -9 25 -6 11 3 19 1 19 -4 0 -4 7 -6 15 -3 8 4
15 1 15 -6 0 -9 3 -10 14 -1 10 9 16 8 25 -3 7 -8 19 -12 27 -9 8 3 14 0 14
-6 0 -6 6 -8 13 -5 8 3 20 -2 27 -11 9 -11 16 -12 25 -5 9 8 15 8 20 0 5 -8
11 -7 23 2 12 10 14 10 8 1 -4 -8 -2 -13 6 -14 21 -2 32 -5 48 -12 8 -3 29 -8
45 -11 17 -2 30 -5 30 -6 0 -2 36 -10 57 -12 10 -1 18 -5 18 -8 0 -6 12 -8 67
-12 18 -2 33 -6 33 -10 0 -5 11 -8 24 -8 14 0 28 -5 31 -11 4 -6 13 -8 20 -5
7 2 16 2 19 -2 4 -3 12 -7 19 -8 7 -1 26 -5 42 -9 17 -4 37 -8 47 -9 9 -1 24
-9 34 -17 16 -13 17 -12 10 5 -7 19 -6 19 14 1 11 -10 20 -14 20 -10 0 4 9 -2
20 -15 13 -15 20 -18 20 -9 0 11 2 11 10 -1 6 -9 10 -10 10 -3 0 7 9 10 23 7
38 -9 52 -12 52 -14 0 -4 52 -13 77 -14 14 -1 24 -5 20 -10 -3 -5 2 -7 11 -3
10 4 17 2 17 -4 0 -6 7 -9 15 -5 8 3 15 0 15 -6 0 -7 4 -7 14 1 11 9 16 9 23
-1 4 -7 19 -14 33 -16 14 -1 31 -3 38 -4 6 -1 12 -4 12 -7 0 -4 10 -8 23 -9
30 -3 48 -7 69 -17 10 -4 25 -5 33 -1 8 3 15 1 15 -5 0 -6 4 -7 10 -4 6 3 10
2 10 -2 0 -8 15 -12 58 -15 6 -1 12 -4 12 -8 0 -4 11 -6 25 -5 14 2 25 0 25
-5 0 -4 9 -6 20 -3 11 3 20 1 20 -5 0 -5 10 -10 23 -10 21 -1 62 -9 62 -12 0
-1 18 -4 39 -6 21 -3 47 -11 58 -18 11 -8 27 -12 38 -9 10 3 21 0 24 -6 4 -5
13 -8 21 -4 8 3 15 1 15 -5 0 -6 9 -8 20 -5 12 3 20 0 20 -7 0 -7 7 -10 15 -7
8 4 17 2 20 -3 3 -5 14 -7 25 -5 11 2 20 1 20 -3 0 -7 16 -11 58 -14 6 -1 12
-6 12 -11 0 -6 3 -7 7 -4 3 4 13 1 21 -6 13 -9 14 -9 8 1 -4 6 -2 12 3 12 6 0
11 -5 11 -11 0 -5 5 -7 10 -4 6 3 10 1 10 -4 0 -6 3 -10 8 -10 21 4 24 -3 6
-17 -10 -8 -13 -12 -6 -9 11 6 11 3 0 -14 -7 -12 -16 -21 -21 -21 -4 0 -5 -4
-2 -10 3 -5 1 -10 -5 -10 -7 0 -9 -7 -6 -16 3 -8 2 -12 -4 -9 -6 3 -10 -3 -10
-14 0 -11 -7 -27 -16 -35 -8 -9 -12 -16 -8 -16 3 0 1 -6 -5 -13 -6 -8 -8 -17
-4 -20 3 -4 1 -7 -5 -7 -7 0 -11 -3 -10 -7 4 -15 -24 -83 -31 -79 -4 3 -8 -1
-9 -9 -1 -8 -3 -22 -4 -30 -1 -8 -5 -15 -10 -15 -5 0 -7 -4 -3 -9 3 -5 1 -12
-5 -16 -6 -4 -8 -11 -5 -16 4 -5 1 -9 -6 -9 -7 0 -10 -3 -6 -6 3 -4 0 -19 -9
-35 -8 -16 -14 -30 -13 -31 0 -2 -5 -16 -12 -33 -7 -16 -12 -33 -11 -37 1 -5
-3 -8 -9 -8 -5 0 -7 -5 -4 -10 3 -6 3 -16 -2 -23 -4 -6 -8 -16 -10 -22 -20
-94 -22 -95 -104 -92 -39 1 -73 -1 -75 -4 -2 -4 -13 -5 -24 -2 -11 3 -26 0
-34 -6 -10 -8 -16 -9 -21 -1 -3 6 -12 7 -18 3 -12 -8 -30 -10 -90 -14 -21 -1
-39 -5 -41 -8 -2 -3 -29 -6 -60 -6 -31 0 -56 -3 -56 -7 0 -3 -8 -5 -17 -3 -10
1 -27 -5 -37 -14 -11 -9 -16 -10 -12 -4 8 15 -10 18 -19 3 -3 -5 -12 -7 -20
-3 -9 3 -21 0 -29 -6 -7 -6 -16 -8 -19 -4 -4 3 -7 1 -7 -6 0 -7 -4 -9 -10 -6
-5 3 -18 2 -28 -4 -26 -14 -39 -1 -36 37 1 17 -1 32 -5 32 -4 0 -8 6 -9 13 -3
34 -14 94 -19 107 -6 15 -8 26 -11 63 -1 10 -6 16 -10 13 -4 -2 -14 -1 -22 5
-10 6 -11 9 -2 9 6 0 12 7 12 15 0 8 -7 15 -15 15 -8 0 -22 11 -31 25 -9 14
-20 22 -25 19 -5 -3 -9 2 -9 12 0 11 -6 15 -20 11 -12 -3 -25 1 -33 12 -6 9
-19 16 -27 16 -8 -1 -19 2 -25 5 -22 14 -145 -5 -145 -22 0 -5 -4 -7 -9 -4 -4
3 -19 -3 -31 -14 -13 -11 -27 -20 -32 -20 -5 0 -6 -4 -3 -10 3 -5 -2 -10 -11
-10 -10 0 -15 -3 -12 -6 4 -3 -2 -14 -13 -25 -11 -11 -17 -24 -14 -29 4 -6 2
-10 -4 -10 -6 0 -13 -11 -17 -25 -3 -14 -10 -25 -14 -25 -9 0 -33 -56 -33 -76
0 -8 -3 -14 -6 -14 -3 0 -7 -19 -9 -43 -1 -23 -7 -43 -12 -45 -6 -2 -6 -10 0
-21 5 -10 6 -21 3 -25 -12 -11 -12 -57 -1 -50 7 5 8 2 2 -7 -11 -19 -11 -72 0
-81 6 -4 5 -12 -3 -21 -6 -9 -8 -18 -3 -21 5 -3 9 -24 10 -48 1 -24 7 -45 12
-46 6 -2 7 -8 4 -13 -3 -6 0 -17 8 -26 11 -14 11 -16 -2 -8 -12 7 -13 6 -3 -7
7 -8 9 -19 5 -23 -4 -5 -1 -5 6 -1 7 4 12 1 12 -8 0 -9 7 -16 15 -16 8 0 15
-4 15 -10 0 -5 7 -10 15 -10 8 0 31 -9 51 -21 20 -11 43 -18 50 -15 7 3 16 1
19 -5 4 -5 11 -7 16 -4 5 4 9 2 9 -2 0 -5 9 -9 20 -9 11 0 20 5 20 11 0 5 4 4
8 -2 5 -7 20 -14 35 -15 15 -1 27 -5 27 -8 0 -3 17 -6 38 -8 49 -3 65 -6 80
-15 7 -5 12 -3 12 5 0 10 2 10 9 -1 6 -9 33 -14 87 -15 44 -1 89 -7 102 -14
12 -7 22 -10 22 -6 0 4 9 -3 20 -16 11 -13 20 -20 20 -16 0 3 13 0 29 -8 16
-9 31 -12 35 -9 3 4 6 1 6 -6 0 -7 4 -9 10 -6 5 3 10 3 10 -2 0 -4 11 -13 25
-20 19 -8 24 -8 19 0 -3 7 2 3 11 -8 9 -11 18 -19 20 -17 10 5 55 -10 55 -19
0 -5 8 -9 19 -9 10 0 24 -6 31 -14 6 -8 19 -12 27 -9 9 4 14 2 11 -3 -8 -12
12 -28 37 -31 33 -4 44 -7 103 -30 9 -3 24 -7 32 -8 8 -1 28 -7 43 -13 16 -7
33 -12 38 -12 5 0 9 -4 9 -8 0 -4 15 -9 33 -10 17 -2 34 -7 35 -12 2 -6 8 -8
13 -4 5 3 9 -1 9 -8 0 -11 2 -11 9 0 6 11 12 10 26 -5 19 -19 21 -19 43 -1 8
7 12 7 12 0 0 -14 48 -21 54 -8 3 7 5 7 5 1 1 -6 16 -9 35 -7 18 2 43 -1 54
-7 17 -9 23 -8 31 6 10 17 12 17 23 -2 7 -11 14 -31 16 -45 2 -14 7 -27 13
-28 5 -2 9 -10 9 -18 0 -8 5 -14 10 -14 6 0 10 -9 10 -19 0 -11 9 -23 20 -26
11 -3 20 -11 20 -17 0 -5 7 -8 15 -4 8 3 21 -2 30 -10 8 -8 19 -12 25 -9 5 3
10 1 10 -4 0 -6 3 -10 8 -10 4 1 9 0 12 -1 12 -4 48 -9 83 -12 20 -1 37 -5 37
-8 0 -3 18 -6 40 -5 22 1 40 -2 40 -6 0 -4 12 -6 26 -3 14 3 32 0 40 -7 8 -6
14 -9 14 -5 0 3 15 0 34 -8 19 -8 37 -12 40 -8 3 3 6 0 6 -7 0 -7 4 -9 10 -6
5 3 10 2 10 -4 0 -5 9 -8 20 -6 12 2 23 -2 26 -10 3 -7 12 -11 20 -8 8 3 14 1
14 -4 0 -4 17 -8 38 -8 20 1 42 -1 47 -4 6 -4 24 -7 40 -8 17 -1 45 -3 63 -4
17 -1 32 -5 32 -8 0 -4 15 -8 33 -9 39 -3 57 -7 79 -16 10 -5 23 -6 30 -3 7 2
26 -2 42 -10 22 -12 27 -12 21 -1 -6 10 -5 11 6 1 7 -7 30 -13 51 -13 24 0 38
-5 38 -12 0 -8 3 -9 8 -3 6 9 27 11 42 5 8 -3 44 -11 65 -15 11 -2 20 -4 20
-5 0 -3 56 -10 78 -11 9 0 17 -5 17 -11 0 -6 3 -8 6 -5 4 3 15 2 25 -4 14 -7
19 -6 19 2 0 8 4 8 15 -1 8 -6 19 -9 25 -5 5 3 10 1 10 -5 0 -6 8 -10 18 -8 9
1 24 -2 32 -7 8 -5 24 -11 35 -12 11 -2 21 -8 23 -13 2 -5 9 -7 17 -4 7 3 16
0 20 -5 3 -6 11 -9 16 -6 5 4 9 1 9 -5 0 -6 4 -9 9 -5 5 3 13 0 16 -6 4 -5 13
-8 21 -5 8 3 14 1 14 -5 0 -6 4 -8 8 -5 5 3 20 -1 35 -9 15 -8 27 -12 27 -9 0
2 14 -3 31 -12 17 -9 28 -11 24 -4 -9 14 36 -10 47 -25 5 -6 8 -4 8 5 0 12 2
13 9 1 5 -7 14 -10 20 -7 6 4 11 2 11 -4 0 -7 7 -10 15 -7 8 4 17 2 20 -3 5
-8 14 -9 103 -13 23 -1 42 -5 42 -10 0 -4 6 -5 13 0 18 11 36 12 43 2 3 -5 11
-6 17 -2 6 4 27 8 47 10 19 2 37 8 38 14 2 5 8 6 13 3 6 -3 16 0 24 6 8 7 15
9 15 6 0 -4 14 2 30 14 17 12 30 19 30 15 0 -3 12 6 27 20 15 14 31 25 36 25
4 0 20 11 34 24 24 23 28 23 50 9 12 -8 23 -19 23 -23 0 -4 13 -13 30 -20 16
-7 27 -16 24 -21 -3 -5 -2 -8 3 -7 4 1 27 -8 51 -19 23 -12 39 -16 35 -10 -3
7 2 5 13 -4 10 -9 35 -20 54 -24 19 -4 41 -12 49 -19 10 -7 13 -7 8 0 -8 14
105 14 115 -1 5 -6 8 -6 8 2 0 7 15 10 40 9 22 -2 40 1 40 6 0 5 4 7 9 4 5 -4
21 -2 34 3 18 7 27 7 31 -2 3 -9 5 -9 5 1 1 6 8 12 16 12 8 0 15 4 15 10 0 5
7 7 15 4 8 -4 15 -2 15 4 0 5 11 8 25 6 14 -1 31 3 38 9 7 7 19 13 27 15 8 2
22 10 30 18 29 28 88 62 96 56 4 -4 4 -1 0 6 -7 11 6 17 29 12 6 -1 7 1 3 5
-9 10 10 27 52 48 19 9 31 17 27 17 -4 0 20 24 55 52 35 29 66 52 71 50 7 -2
11 13 8 31 0 4 3 6 7 5 5 -2 24 14 44 34 19 21 38 34 42 30 4 -4 6 -2 4 3 -3
12 47 66 55 59 2 -3 8 7 11 21 4 14 11 23 16 20 9 -6 14 8 11 28 0 4 6 7 15 7
8 0 12 5 9 10 -3 5 1 10 10 10 9 0 14 4 10 9 -3 6 3 14 12 20 10 6 14 11 8 11
-5 0 1 7 13 16 12 8 20 20 17 25 -4 5 1 9 9 9 9 0 16 4 16 9 0 5 17 27 37 48
21 21 36 39 34 41 -1 2 11 19 28 38 33 35 40 50 19 38 -7 -3 -1 5 15 20 15 15
27 33 27 41 0 8 5 15 12 15 6 0 9 3 5 6 -8 9 16 33 27 26 5 -3 6 0 2 6 -3 6 1
15 10 20 9 5 15 12 15 15 -2 15 25 47 39 47 12 0 12 2 2 9 -11 7 -11 9 2 14 9
4 16 13 16 22 0 8 5 14 11 13 6 -2 13 6 15 17 1 11 10 25 19 31 9 7 16 15 16
18 -1 3 -1 8 -1 11 0 2 21 -2 47 -10 25 -8 50 -12 55 -9 4 3 8 1 8 -4 0 -5 11
-8 25 -7 14 2 25 0 25 -4 0 -6 17 -10 58 -13 6 -1 12 -5 12 -10 0 -4 9 -8 21
-8 13 0 18 -4 13 -12 -6 -10 -5 -10 8 -1 8 7 17 10 20 8 5 -6 40 -15 68 -19 9
-1 20 -5 27 -9 6 -4 23 -8 37 -9 14 -1 26 -6 26 -10 0 -4 9 -7 20 -7 11 -1 29
-1 40 -2 11 0 20 -6 20 -14 0 -10 9 -13 30 -10 16 2 32 -1 36 -6 3 -5 9 -7 14
-4 4 3 27 -2 50 -10 23 -8 53 -15 66 -15 13 0 24 -4 24 -8 0 -4 10 -9 22 -9
13 -1 28 -9 34 -17 6 -9 13 -13 17 -10 3 3 8 -4 12 -15 3 -12 11 -19 16 -15
13 8 39 -15 39 -34 0 -22 41 -54 63 -48 15 4 16 2 6 -10 -10 -12 -9 -13 5 -8
9 3 16 11 16 17 0 5 9 2 19 -7 12 -11 21 -13 25 -7 4 5 15 9 26 8 10 -1 16 -5
14 -9 -3 -5 -11 -5 -17 -2 -9 5 -9 4 -2 -4 15 -16 75 -22 75 -8 0 6 4 5 9 -3
7 -11 9 -11 14 0 3 8 6 9 6 2 1 -7 14 -5 41 8 21 10 44 19 50 19 5 0 10 4 10
10 0 5 7 7 15 4 9 -4 15 0 15 7 0 12 2 12 9 0 5 -7 14 -10 20 -7 6 4 11 4 11
-1 0 -4 14 -9 32 -10 17 -1 34 -6 37 -10 3 -5 11 -9 17 -10 6 -1 24 -5 40 -8
16 -3 46 -9 67 -12 20 -3 37 -9 37 -12 0 -4 10 -8 23 -9 38 -3 62 -8 74 -15 6
-4 27 -8 46 -9 19 -2 33 -6 30 -10 -4 -7 21 -12 55 -11 6 1 12 -3 12 -7 0 -4
8 -10 19 -13 14 -3 18 1 17 17 -1 11 7 29 17 39 10 10 15 22 12 27 -4 6 0 10
7 10 10 0 10 2 -1 9 -10 6 -10 10 -1 16 6 4 9 13 6 21 -3 8 -1 14 5 14 6 0 7
4 4 10 -3 5 -1 19 5 30 7 13 7 20 1 20 -6 0 -8 7 -5 15 4 8 9 13 13 11 3 -2 6
17 5 42 0 26 4 56 10 67 5 11 10 30 10 42 1 12 4 24 8 28 4 4 4 13 1 21 -3 8
0 14 7 14 6 0 8 5 5 10 -4 6 -3 16 3 23 5 7 8 28 8 47 -1 19 2 41 7 47 5 7 6
13 2 13 -4 0 -2 7 5 15 7 8 9 15 5 15 -4 0 -1 8 6 17 10 11 10 14 2 9 -7 -4
-13 -2 -13 3 0 6 5 11 11 11 6 0 9 7 5 15 -3 8 -2 15 2 15 7 0 9 12 13 68 0 9
3 24 6 32 4 8 7 31 8 50 2 19 8 48 14 64 6 16 9 31 6 34 -3 3 2 16 11 30 12
19 13 26 4 32 -9 5 -9 9 -1 14 6 4 9 12 6 17 -4 5 -2 9 4 9 5 0 8 9 6 20 -2
11 -1 20 3 20 8 0 14 38 16 97 1 17 4 29 7 27 4 -2 9 5 12 16 3 13 1 18 -6 13
-9 -5 -9 -3 -1 8 6 8 10 22 9 32 -2 9 0 17 4 17 4 0 8 17 9 37 2 20 8 43 14
50 8 9 7 13 -2 13 -9 0 -9 4 -3 13 6 6 11 19 11 27 4 51 11 81 21 94 7 8 10
20 7 25 -4 5 -2 12 2 15 5 3 8 19 7 36 -1 16 2 30 6 30 4 0 8 8 8 18 1 32 12
107 18 122 4 8 8 22 9 30 1 8 6 26 9 40 4 14 7 31 7 38 1 6 4 12 7 12 3 0 7
21 8 46 0 26 5 49 10 53 4 3 8 17 8 31 0 14 2 30 6 35 3 6 5 21 5 35 -1 14 3
28 8 31 5 4 10 22 12 40 4 50 12 102 18 119 3 8 8 29 11 45 7 37 13 59 15 63
2 1 3 10 4 20 1 9 5 23 9 30 5 6 5 17 2 22 -3 6 -1 10 5 10 6 0 8 4 5 10 -3 5
-1 28 5 50 6 23 12 58 14 79 1 20 5 42 9 47 3 6 8 22 11 37 2 15 7 31 11 37 3
5 1 10 -6 10 -9 0 -9 4 1 15 6 8 9 19 5 25 -3 5 -2 10 3 10 5 0 9 16 9 36 -1
19 3 38 8 42 6 4 10 12 10 17 1 41 18 126 26 131 6 3 8 12 5 20 -3 8 -2 14 3
14 4 0 7 12 6 28 -1 15 2 32 7 39 6 7 7 17 3 23 -3 5 -2 10 2 10 5 0 9 8 10
18 4 46 9 78 16 89 4 6 4 18 1 27 -4 9 -1 16 6 16 10 0 10 3 1 14 -9 11 -9 15
0 18 11 4 18 32 22 81 1 9 4 17 8 17 3 0 6 10 5 23 -1 12 4 31 11 43 7 11 10
23 7 26 -3 4 -1 15 5 26 11 20 23 73 25 105 0 9 4 17 9 17 4 0 6 4 2 9 -3 5 0
13 6 16 5 4 8 13 5 21 -3 7 -1 16 4 19 5 3 7 14 5 25 -2 11 0 20 5 20 5 0 9 8
9 18 0 9 3 33 6 52 3 19 6 41 7 48 1 6 4 12 8 12 3 0 6 15 5 33 0 17 3 37 7
43 5 7 11 21 13 33 3 12 8 31 11 44 3 12 6 34 7 50 0 15 4 27 9 27 4 0 8 14 8
31 0 19 4 28 11 23 8 -4 8 0 0 15 -7 11 -8 21 -3 21 4 0 9 8 10 18 4 33 8 51
14 58 4 3 4 12 1 20 -3 8 -1 14 4 14 5 0 8 14 7 30 -1 17 2 33 7 36 5 3 7 10
4 15 -4 5 -2 9 4 9 6 0 8 7 5 15 -3 8 -2 20 2 27 5 7 9 21 10 31 1 9 3 19 4
22 1 3 3 8 4 13 1 4 4 12 6 17 3 6 5 26 5 47 0 20 4 34 9 30 5 -3 7 5 4 16 -4
12 -2 25 3 28 5 3 7 9 4 14 -3 5 -1 11 4 15 5 3 8 14 6 25 -2 11 0 20 5 20 5
0 7 7 4 15 -4 9 0 15 7 15 11 0 11 3 -1 10 -12 7 -12 10 -1 10 7 0 11 6 7 15
-3 8 0 15 6 15 7 0 7 4 -1 14 -9 10 -9 16 -1 21 6 4 9 13 6 21 -3 8 -1 14 5
14 6 0 9 7 5 15 -3 8 -1 15 3 15 5 0 8 8 6 18 -1 9 0 22 3 27 4 6 7 19 9 30 2
22 11 60 13 60 1 0 3 9 5 20 4 19 11 54 17 85 2 8 7 20 11 27 4 6 4 18 1 27
-3 9 -2 16 3 16 5 0 9 10 10 23 2 50 8 77 16 77 5 0 7 7 3 15 -3 8 2 31 11 52
9 21 16 55 17 76 0 20 4 37 9 37 4 0 6 4 3 9 -3 5 1 14 9 21 11 9 12 16 5 25
-8 9 -8 15 0 20 6 3 8 11 4 16 -3 5 0 17 8 26 7 10 8 14 1 10 -6 -4 -3 10 7
30 13 28 15 40 7 45 -9 6 -9 8 0 8 7 0 10 7 7 15 -4 8 -1 15 7 15 7 0 9 3 6 7
-4 3 -2 12 5 20 14 17 8 23 -34 30 -18 3 -36 10 -40 16 -6 9 -8 8 -8 -1 0 -8
-5 -10 -12 -6 -7 4 -23 9 -36 10 -13 2 -31 9 -40 16 -12 10 -14 10 -8 1 9 -16
-2 -16 -34 0 -14 6 -40 12 -57 12 -18 -1 -33 3 -33 8 0 4 -4 6 -9 2 -5 -3 -31
2 -56 11 -26 8 -53 13 -61 10 -7 -3 -16 -1 -19 4 -3 4 -16 7 -30 5 -14 -1 -25
1 -25 4 0 6 -31 11 -77 14 -7 0 -13 4 -13 8 0 4 -9 6 -20 4 -11 -2 -22 0 -25
5 -3 4 -14 6 -24 3 -10 -3 -22 0 -25 6 -4 6 -12 11 -17 11 -6 0 -7 -6 -3 -12
6 -10 4 -10 -7 -2 -18 14 -115 35 -171 38 -10 0 -18 3 -18 7 0 4 -8 9 -19 12
-12 3 -18 13 -18 31 0 14 3 26 7 26 4 0 6 12 4 27 -1 15 0 32 3 37 4 5 8 28
10 50 5 70 10 103 18 116 6 9 4 11 -6 5 -12 -7 -12 -6 -1 7 9 12 10 18 2 23
-8 5 -8 10 0 20 8 10 8 15 0 20 -6 4 -7 12 -2 18 4 7 7 31 6 55 -1 23 3 42 8
42 7 0 7 5 1 13 -5 6 -9 47 -8 90 0 42 -3 77 -6 77 -4 0 -6 14 -5 30 1 17 -3
30 -8 30 -6 0 -4 5 4 10 8 5 10 10 4 10 -5 0 -9 15 -8 32 1 18 -2 40 -6 49 -6
10 -5 20 2 27 9 9 9 12 0 12 -7 0 -12 9 -12 20 0 11 -4 20 -9 20 -5 0 -9 10
-9 23 1 41 -6 77 -15 77 -4 0 -5 5 -2 10 3 6 1 10 -4 10 -6 0 -11 5 -11 11 0
5 6 7 13 3 9 -6 9 -4 1 7 -26 32 -33 123 -13 162 7 11 6 17 -1 17 -7 0 -8 5
-3 13 7 12 10 27 16 112 1 22 6 45 10 52 4 6 3 15 -3 18 -7 4 -7 11 -2 18 5 7
8 29 8 50 -1 20 1 37 4 37 3 0 5 22 4 50 -1 27 2 50 6 50 5 0 4 16 0 35 -4 19
-4 33 0 30 5 -3 8 4 7 15 -1 11 -5 20 -10 20 -4 0 -5 6 0 13 11 18 12 36 2 43
-5 3 -9 10 -9 15 0 6 5 7 11 3 8 -4 8 -1 2 12 -5 11 -10 48 -11 83 -1 36 -4
67 -7 69 -2 3 0 13 5 23 6 11 6 20 1 23 -5 4 -8 14 -6 24 1 9 -2 23 -8 30 -6
8 -5 12 4 12 9 0 10 3 3 8 -10 6 -12 21 -14 95 -1 15 -5 27 -9 27 -3 0 -7 15
-8 33 -2 38 -6 58 -16 74 -4 6 -1 14 5 16 10 4 10 6 1 6 -7 1 -13 13 -13 27 0
16 -4 23 -11 18 -8 -4 -8 -1 -1 12 7 14 6 24 -3 38 -8 10 -11 25 -8 34 4 10 2
13 -5 8 -8 -5 -11 2 -8 23 2 17 0 31 -4 31 -5 0 -7 8 -6 17 2 10 -3 24 -11 31
-7 8 -11 17 -8 22 3 5 1 11 -5 15 -5 3 -10 14 -10 24 0 10 -7 24 -15 31 -8 7
-12 16 -9 21 3 5 2 9 -3 9 -9 0 -33 48 -33 67 0 7 -4 13 -10 13 -5 0 -10 7
-10 15 0 8 -4 15 -10 15 -5 0 -10 7 -10 16 0 8 -7 22 -15 31 -8 8 -13 19 -10
24 4 5 1 9 -5 9 -6 0 -9 4 -5 9 3 5 -3 16 -12 23 -10 7 -19 18 -20 25 -1 6
-14 24 -28 39 -14 15 -25 33 -25 41 0 8 -4 11 -10 8 -5 -3 -10 3 -10 14 0 13
-7 21 -17 21 -9 0 -13 3 -10 6 4 4 -3 15 -15 25 -11 11 -18 19 -15 19 4 0 -1
8 -10 18 -10 11 -29 33 -43 50 -14 17 -28 31 -32 32 -13 0 -47 38 -40 44 3 3
-2 6 -12 6 -9 0 -19 7 -22 15 -4 8 -10 12 -15 9 -5 -3 -9 0 -9 5 0 6 -7 11
-15 11 -8 0 -15 5 -15 10 0 6 -8 10 -18 10 -10 0 -22 3 -26 7 -7 7 -13 8 -88
16 -26 3 -52 8 -59 13 -7 4 -10 3 -6 -3 4 -7 -10 -10 -38 -8 -27 1 -45 -3 -45
-9 0 -6 -5 -4 -10 4 -5 8 -10 10 -10 4 0 -6 -10 -10 -22 -10 -13 1 -27 0 -33
-3 -5 -3 -19 -6 -30 -7 -59 -6 -75 -9 -75 -14 0 -3 -12 -7 -26 -8 -15 -1 -32
-6 -38 -10 -6 -5 -22 -9 -36 -10 -53 -5 -65 -7 -72 -16 -6 -9 -27 -16 -55 -18
-7 -1 -13 -5 -13 -10 0 -5 -4 -7 -9 -3 -5 3 -12 1 -16 -5 -3 -5 -17 -10 -30
-10 -14 0 -29 -9 -36 -21 -7 -14 -14 -18 -21 -11 -7 7 -26 1 -59 -19 -27 -16
-49 -25 -49 -21 0 4 -5 0 -10 -8 -8 -13 -11 -13 -19 -1 -5 7 -13 11 -18 8 -5
-3 -16 3 -23 14 -8 10 -20 19 -28 19 -7 0 -10 5 -6 12 5 8 2 9 -9 5 -12 -4
-17 -1 -17 9 0 10 -6 14 -14 11 -8 -3 -17 1 -20 9 -3 8 -13 14 -21 14 -9 0
-23 7 -32 15 -8 9 -20 14 -26 12 -6 -2 -19 4 -29 12 -10 9 -22 16 -26 16 -21
2 -52 18 -52 27 0 6 -3 9 -6 5 -4 -3 -21 1 -38 10 -17 9 -35 18 -41 19 -28 7
-81 30 -87 39 -5 6 -8 4 -8 -5 0 -12 -2 -12 -9 -2 -4 7 -14 14 -22 15 -8 2
-20 6 -26 10 -7 5 -17 6 -21 3 -5 -3 -21 1 -36 9 -15 8 -30 14 -34 14 -4 -1
-9 0 -12 1 -3 2 -23 3 -45 4 -22 1 -46 5 -53 10 -7 4 -19 2 -27 -4 -11 -9 -15
-9 -15 -1 0 6 -9 11 -20 11 -11 0 -20 6 -20 14 0 8 -7 17 -16 20 -9 4 -14 13
-10 22 3 8 2 12 -4 9 -6 -3 -10 2 -10 12 0 11 -6 25 -12 32 -11 11 -10 12 2 6
12 -6 13 -5 3 6 -7 7 -13 23 -13 36 0 13 -4 23 -10 23 -12 0 -9 22 5 32 7 5 6
8 -1 8 -10 0 -13 47 -3 65 3 6 11 29 19 52 16 52 102 143 135 143 8 0 15 4 15
9 0 5 8 8 18 7 9 -2 19 0 22 5 10 15 112 21 121 7 5 -8 9 -8 9 -2 0 12 65 1
107 -19 13 -6 25 -8 28 -5 9 8 -5 35 -18 35 -23 1 -41 8 -56 21 -7 7 -20 11
-27 8 -7 -3 -16 -1 -19 4 -4 6 -15 10 -26 10 -10 0 -19 5 -19 11 0 8 -4 8 -14
0 -9 -8 -16 -8 -20 -2 -8 12 -66 10 -66 -3 0 -5 -6 -4 -13 2 -8 7 -18 7 -27 2
-9 -6 -17 -5 -22 3 -4 7 -8 8 -8 2z m-6309 -2082 c13 -17 13 -17 -6 -3 -11 8
-22 16 -24 17 -2 2 0 3 6 3 6 0 17 -8 24 -17z m1294 -291 c-3 -3 -11 0 -18 7
-9 10 -8 11 6 5 10 -3 15 -9 12 -12z m-1435 -72 c0 -5 -5 -10 -11 -10 -5 0 -7
5 -4 10 3 6 8 10 11 10 2 0 4 -4 4 -10z m-3 -35 c0 -8 -4 -12 -9 -9 -5 3 -6
10 -3 15 9 13 12 11 12 -6z m-60 -210 c0 -8 -4 -12 -9 -9 -4 3 -8 9 -8 15 0 5
4 9 8 9 5 0 9 -7 9 -15z m-289 -1030 c-3 -3 -9 2 -12 12 -6 14 -5 15 5 6 7 -7
10 -15 7 -18z m-216 -632 c-6 -2 -9 -10 -6 -15 4 -7 2 -8 -5 -4 -13 9 -5 26
12 25 9 0 8 -2 -1 -6z m-697 -2409 c-1 -14 -8 -31 -15 -37 -10 -10 -10 -8 -1
10 6 12 11 26 10 30 -2 12 0 23 5 23 2 0 3 -12 1 -26z m1249 -1082 c2 -4 -4
-8 -14 -8 -10 0 -16 4 -14 8 3 4 9 8 14 8 5 0 11 -4 14 -8z m392 -105 c3 -3
-6 -4 -20 -3 -15 2 -29 6 -32 9 -4 3 6 5 20 3 14 -1 29 -5 32 -9z m39 -7 c-3
-5 -12 -10 -18 -10 -7 0 -6 4 3 10 19 12 23 12 15 0z m505 -128 c0 -5 -7 -9
-15 -9 -8 0 -12 4 -9 9 3 4 9 8 15 8 5 0 9 -4 9 -8z m400 -84 c0 -5 4 -7 8 -4
5 3 9 -1 9 -8 0 -7 -6 -13 -14 -13 -7 0 -13 5 -13 10 0 5 -7 7 -14 4 -10 -4
-13 -1 -10 7 5 14 34 18 34 4z m55 -37 c-6 -5 -25 10 -25 20 0 5 6 4 14 -3 8
-7 12 -15 11 -17z m358 -76 c-3 -9 -8 -14 -10 -11 -3 3 -2 9 2 15 9 16 15 13
8 -4z m3893 -1027 c3 -5 10 -6 15 -2 6 3 18 2 27 -2 9 -4 26 -8 37 -9 11 -1
33 -7 48 -14 16 -6 33 -9 38 -5 5 3 9 1 9 -4 0 -5 6 -9 13 -10 43 -3 57 -7 57
-16 0 -5 3 -7 6 -4 3 3 21 2 41 -4 19 -5 45 -12 57 -14 28 -7 38 -10 56 -17 8
-4 29 -8 45 -9 17 -2 32 -6 35 -10 3 -4 20 -8 36 -10 21 -1 31 -7 30 -18 -1
-19 -38 -80 -48 -80 -4 0 -8 -7 -8 -15 0 -9 -7 -18 -15 -21 -14 -6 -31 -41
-27 -56 1 -4 -6 -4 -16 -1 -9 3 -14 3 -10 -2 4 -4 -8 -23 -27 -40 -19 -18 -32
-35 -29 -37 2 -3 -5 -13 -16 -23 -11 -10 -20 -24 -20 -32 0 -7 -7 -16 -15 -19
-8 -4 -13 -10 -10 -14 3 -5 1 -11 -5 -15 -5 -3 -10 -15 -10 -27 0 -14 -5 -18
-16 -14 -8 3 -12 2 -9 -4 3 -5 -3 -18 -15 -30 -11 -11 -20 -24 -20 -30 0 -5
-6 -10 -13 -10 -13 0 -42 -47 -39 -63 1 -4 -1 -6 -5 -6 -18 3 -33 -2 -31 -9 4
-11 -38 -62 -46 -55 -3 3 -6 1 -6 -6 0 -16 -26 -42 -34 -34 -3 4 -6 -1 -6 -11
0 -9 -7 -19 -15 -22 -8 -4 -15 -12 -15 -20 0 -8 -6 -11 -17 -7 -9 4 -14 2 -11
-3 4 -8 -24 -43 -37 -45 -35 -6 -45 -13 -40 -28 3 -8 3 -12 -1 -9 -10 10 -46
-11 -39 -23 4 -5 3 -9 -2 -8 -20 3 -34 -2 -28 -11 3 -5 -1 -10 -10 -10 -9 0
-23 -7 -31 -15 -16 -15 -91 -40 -111 -36 -7 1 -13 -3 -13 -8 0 -6 -7 -7 -17
-4 -12 5 -14 3 -8 -8 8 -12 6 -12 -8 0 -9 7 -17 10 -17 6 0 -4 -6 -2 -13 4 -8
6 -17 7 -22 3 -4 -4 -5 2 -3 13 2 11 10 19 17 17 7 -1 10 2 6 7 -3 6 4 20 15
31 11 11 18 25 15 30 -4 6 1 10 10 10 9 0 13 5 10 10 -3 6 -1 10 6 10 7 0 9 3
6 7 -4 3 1 15 10 26 13 15 14 19 3 13 -9 -5 -8 -2 2 7 10 8 15 17 11 20 -3 4
-1 7 6 7 7 0 9 5 5 11 -3 6 -1 15 5 19 7 4 13 14 15 23 1 10 11 24 22 33 10 8
14 13 7 9 -8 -4 -8 3 2 22 8 15 15 34 15 41 0 6 4 12 9 12 9 0 27 57 23 73 -1
4 3 7 9 7 6 0 9 7 5 15 -3 8 -1 15 5 15 6 0 7 5 4 10 -4 6 -1 18 6 27 8 9 14
21 14 27 2 25 18 92 27 110 8 14 7 17 -4 10 -10 -6 -11 -5 -1 8 7 8 10 18 6
21 -3 4 -1 7 6 7 7 0 9 4 6 10 -3 5 -1 18 5 29 5 11 12 39 13 64 2 24 7 48 10
54 4 6 8 31 9 57 2 25 8 46 13 46 6 0 6 3 0 8 -6 4 -11 24 -11 45 0 35 1 37
29 35 16 -1 31 -6 33 -10z m1988 -584 c3 -8 2 -12 -4 -9 -6 3 -10 10 -10 16 0
14 7 11 14 -7z"/>
<path d="M8866 11834 c-4 -10 -1 -21 6 -26 16 -10 47 -11 32 0 -6 4 -15 15
-21 26 -9 17 -10 17 -17 0z"/>
<path d="M1963 9195 c0 -8 4 -12 9 -9 5 3 6 10 3 15 -9 13 -12 11 -12 -6z"/>
</g>
</svg>
